<svg width="84" height="51" viewBox="0 0 84 51" fill="none" xmlns="http://www.w3.org/2000/svg">
<g filter="url(#filter0_d)" >
<path d="M16.4017 12.8306H16.399C14.1367 12.8306 12.3027 14.6177 12.3027 16.8223V16.8249C12.3027 19.0295 14.1367 20.8167 16.399 20.8167H16.4017C18.664 20.8167 20.498 19.0295 20.498 16.8249V16.8223C20.498 14.6177 18.664 12.8306 16.4017 12.8306Z" fill="#AFB1B8"/>
<path d="M46.6363 11.5545C46.6299 8.49242 45.379 5.55752 43.1574 3.39207C40.9358 1.22661 37.9245 0.00695286 34.7823 0V0C31.6392 0.00556265 28.6264 1.22461 26.4037 3.39022C24.1809 5.55582 22.9293 8.49151 22.9229 11.5545V28.4402C22.9229 28.4402 46.6336 25.8667 46.6363 11.5571V11.5545Z" fill="#AFB1B8"/>
<path d="M4 33.9823C4.0057 36.1129 4.87656 38.1547 6.42228 39.6615C7.96799 41.1683 10.0629 42.0177 12.2492 42.0239C14.4351 42.0177 16.5296 41.1687 18.0752 39.6625C19.6209 38.1562 20.492 36.1151 20.4985 33.9849V22.2356C20.4985 22.2356 4 24.0276 4 33.9823ZM12.2492 36.0874C11.822 36.0874 11.4043 35.964 11.0491 35.7326C10.6938 35.5013 10.417 35.1726 10.2535 34.7879C10.09 34.4032 10.0472 33.98 10.1305 33.5716C10.2139 33.1632 10.4196 32.7881 10.7217 32.4937C11.0239 32.1993 11.4088 31.9988 11.8278 31.9176C12.2468 31.8364 12.6812 31.8781 13.0759 32.0374C13.4706 32.1967 13.808 32.4665 14.0454 32.8127C14.2827 33.1589 14.4094 33.5659 14.4094 33.9823C14.4105 34.2594 14.3554 34.534 14.2473 34.7903C14.1392 35.0466 13.9803 35.2796 13.7796 35.476C13.5789 35.6723 13.3404 35.828 13.0778 35.9343C12.8152 36.0406 12.5336 36.0953 12.2492 36.0953V36.0874Z" fill="#AFB1B8"/>
<path d="M29.0889 34.7812H27.4014V36.5244H26.5225V32.2588H29.2998V32.9707H27.4014V34.0723H29.0889V34.7812ZM33.3135 34.4883C33.3135 34.9082 33.2393 35.2764 33.0908 35.5928C32.9424 35.9092 32.7295 36.1533 32.4521 36.3252C32.1768 36.4971 31.8604 36.583 31.5029 36.583C31.1494 36.583 30.834 36.498 30.5566 36.3281C30.2793 36.1582 30.0645 35.916 29.9121 35.6016C29.7598 35.2852 29.6826 34.9219 29.6807 34.5117V34.3008C29.6807 33.8809 29.7559 33.5117 29.9062 33.1934C30.0586 32.873 30.2725 32.6279 30.5479 32.458C30.8252 32.2861 31.1416 32.2002 31.4971 32.2002C31.8525 32.2002 32.168 32.2861 32.4434 32.458C32.7207 32.6279 32.9346 32.873 33.085 33.1934C33.2373 33.5117 33.3135 33.8799 33.3135 34.2979V34.4883ZM32.4229 34.2949C32.4229 33.8477 32.3428 33.5078 32.1826 33.2754C32.0225 33.043 31.7939 32.9268 31.4971 32.9268C31.2021 32.9268 30.9746 33.042 30.8145 33.2725C30.6543 33.501 30.5732 33.8369 30.5713 34.2803V34.4883C30.5713 34.9238 30.6514 35.2617 30.8115 35.502C30.9717 35.7422 31.2021 35.8623 31.5029 35.8623C31.7979 35.8623 32.0244 35.7471 32.1826 35.5166C32.3408 35.2842 32.4209 34.9463 32.4229 34.5029V34.2949ZM36.1641 35.4053C36.1641 35.2393 36.1055 35.1123 35.9883 35.0244C35.8711 34.9346 35.6602 34.8408 35.3555 34.7432C35.0508 34.6436 34.8096 34.5459 34.6318 34.4502C34.1475 34.1885 33.9053 33.8359 33.9053 33.3926C33.9053 33.1621 33.9697 32.957 34.0986 32.7773C34.2295 32.5957 34.416 32.4541 34.6582 32.3525C34.9023 32.251 35.1758 32.2002 35.4785 32.2002C35.7832 32.2002 36.0547 32.2559 36.293 32.3672C36.5312 32.4766 36.7158 32.6318 36.8467 32.833C36.9795 33.0342 37.0459 33.2627 37.0459 33.5186H36.167C36.167 33.3232 36.1055 33.1719 35.9824 33.0645C35.8594 32.9551 35.6865 32.9004 35.4639 32.9004C35.249 32.9004 35.082 32.9463 34.9629 33.0381C34.8438 33.1279 34.7842 33.2471 34.7842 33.3955C34.7842 33.5342 34.8535 33.6504 34.9922 33.7441C35.1328 33.8379 35.3389 33.9258 35.6104 34.0078C36.1104 34.1582 36.4746 34.3447 36.7031 34.5674C36.9316 34.79 37.0459 35.0674 37.0459 35.3994C37.0459 35.7686 36.9062 36.0586 36.627 36.2695C36.3477 36.4785 35.9717 36.583 35.499 36.583C35.1709 36.583 34.8721 36.5234 34.6025 36.4043C34.333 36.2832 34.127 36.1182 33.9844 35.9092C33.8438 35.7002 33.7734 35.458 33.7734 35.1826H34.6553C34.6553 35.6533 34.9365 35.8887 35.499 35.8887C35.708 35.8887 35.8711 35.8467 35.9883 35.7627C36.1055 35.6768 36.1641 35.5576 36.1641 35.4053ZM40.8545 32.9707H39.5479V36.5244H38.6689V32.9707H37.3799V32.2588H40.8545V32.9707ZM43.9248 34.6758H42.2373V35.8184H44.2178V36.5244H41.3584V32.2588H44.2119V32.9707H42.2373V33.9873H43.9248V34.6758ZM46.3125 34.9629H45.6123V36.5244H44.7334V32.2588H46.3184C46.8223 32.2588 47.2109 32.3711 47.4844 32.5957C47.7578 32.8203 47.8945 33.1377 47.8945 33.5479C47.8945 33.8389 47.8311 34.082 47.7041 34.2773C47.5791 34.4707 47.3887 34.625 47.1328 34.7402L48.0557 36.4834V36.5244H47.1123L46.3125 34.9629ZM45.6123 34.251H46.3213C46.542 34.251 46.7129 34.1953 46.834 34.084C46.9551 33.9707 47.0156 33.8154 47.0156 33.6182C47.0156 33.417 46.958 33.2588 46.8428 33.1436C46.7295 33.0283 46.5547 32.9707 46.3184 32.9707H45.6123V34.251ZM50.9385 35.0215V36.5244H50.0596V32.2588H51.7236C52.0439 32.2588 52.3252 32.3174 52.5674 32.4346C52.8115 32.5518 52.999 32.7188 53.1299 32.9355C53.2607 33.1504 53.3262 33.3955 53.3262 33.6709C53.3262 34.0889 53.1826 34.4189 52.8955 34.6611C52.6104 34.9014 52.2148 35.0215 51.709 35.0215H50.9385ZM50.9385 34.3096H51.7236C51.9561 34.3096 52.1328 34.2549 52.2539 34.1455C52.377 34.0361 52.4385 33.8799 52.4385 33.6768C52.4385 33.4678 52.377 33.2988 52.2539 33.1699C52.1309 33.041 51.9609 32.9746 51.7441 32.9707H50.9385V34.3096ZM56.499 34.6758H54.8115V35.8184H56.792V36.5244H53.9326V32.2588H56.7861V32.9707H54.8115V33.9873H56.499V34.6758ZM60.5771 32.9707H59.2705V36.5244H58.3916V32.9707H57.1025V32.2588H60.5771V32.9707ZM63.6475 34.6758H61.96V35.8184H63.9404V36.5244H61.0811V32.2588H63.9346V32.9707H61.96V33.9873H63.6475V34.6758ZM66.0352 34.9629H65.335V36.5244H64.4561V32.2588H66.041C66.5449 32.2588 66.9336 32.3711 67.207 32.5957C67.4805 32.8203 67.6172 33.1377 67.6172 33.5479C67.6172 33.8389 67.5537 34.082 67.4268 34.2773C67.3018 34.4707 67.1113 34.625 66.8555 34.7402L67.7783 36.4834V36.5244H66.835L66.0352 34.9629ZM65.335 34.251H66.0439C66.2646 34.251 66.4355 34.1953 66.5566 34.084C66.6777 33.9707 66.7383 33.8154 66.7383 33.6182C66.7383 33.417 66.6807 33.2588 66.5654 33.1436C66.4521 33.0283 66.2773 32.9707 66.041 32.9707H65.335V34.251ZM70.5 35.4053C70.5 35.2393 70.4414 35.1123 70.3242 35.0244C70.207 34.9346 69.9961 34.8408 69.6914 34.7432C69.3867 34.6436 69.1455 34.5459 68.9678 34.4502C68.4834 34.1885 68.2412 33.8359 68.2412 33.3926C68.2412 33.1621 68.3057 32.957 68.4346 32.7773C68.5654 32.5957 68.752 32.4541 68.9941 32.3525C69.2383 32.251 69.5117 32.2002 69.8145 32.2002C70.1191 32.2002 70.3906 32.2559 70.6289 32.3672C70.8672 32.4766 71.0518 32.6318 71.1826 32.833C71.3154 33.0342 71.3818 33.2627 71.3818 33.5186H70.5029C70.5029 33.3232 70.4414 33.1719 70.3184 33.0645C70.1953 32.9551 70.0225 32.9004 69.7998 32.9004C69.585 32.9004 69.418 32.9463 69.2988 33.0381C69.1797 33.1279 69.1201 33.2471 69.1201 33.3955C69.1201 33.5342 69.1895 33.6504 69.3281 33.7441C69.4688 33.8379 69.6748 33.9258 69.9463 34.0078C70.4463 34.1582 70.8105 34.3447 71.0391 34.5674C71.2676 34.79 71.3818 35.0674 71.3818 35.3994C71.3818 35.7686 71.2422 36.0586 70.9629 36.2695C70.6836 36.4785 70.3076 36.583 69.835 36.583C69.5068 36.583 69.208 36.5234 68.9385 36.4043C68.6689 36.2832 68.4629 36.1182 68.3203 35.9092C68.1797 35.7002 68.1094 35.458 68.1094 35.1826H68.9912C68.9912 35.6533 69.2725 35.8887 69.835 35.8887C70.0439 35.8887 70.207 35.8467 70.3242 35.7627C70.4414 35.6768 70.5 35.5576 70.5 35.4053Z" fill="#AFB1B8"/>
</g>
<defs>
<filter id="filter0_d" x="0" y="0" width="75.3818" height="50.0239" filterUnits="userSpaceOnUse" color-interpolation-filters="sRGB">
<feFlood flood-opacity="0" result="BackgroundImageFix"/>
<feColorMatrix in="SourceAlpha" type="matrix" values="0 0 0 0 0 0 0 0 0 0 0 0 0 0 0 0 0 0 127 0"/>
<feOffset dy="4"/>
<feGaussianBlur stdDeviation="2"/>
<feColorMatrix type="matrix" values="0 0 0 0 0 0 0 0 0 0 0 0 0 0 0 0 0 0 0.25 0"/>
<feBlend mode="normal" in2="BackgroundImageFix" result="effect1_dropShadow"/>
<feBlend mode="normal" in="SourceGraphic" in2="effect1_dropShadow" result="shape"/>
</filter>
</defs>
</svg>
